# xmcd CD database file
#
# Track frame offsets:
#	150
#	6360
#	35525
#	53225
#	60950
#	91700
#	116975
#	132800
#	147650
#	163785
#	176107
#	192642
#	203690
#	237362
#	263325
#	278760
#	302077
#
# Disc length: 4301 seconds
#
# Revision: 0
# Processed by: cddbd v1.4PL0 Copyright (c) Steve Scherf et al.
# Submitted via: CDex 1.51
#
DISCID=f210cb11
DTITLE=Martin Kolbe and Ralf Illenberger - Waves - Colouring The Leaves
DYEAR=1993
DGENRE=Jazz
TTITLE0=Opening
TTITLE1=G'schteinigt
TTITLE2=Music
TTITLE3=Namenlos
TTITLE4=Waves
TTITLE5=Break
TTITLE6=In der Halle des Bergkönigs
TTITLE7=Sommerabend
TTITLE8=Free Man in T'harde
TTITLE9=Walzer
TTITLE10=Groove
TTITLE11=Genéve
TTITLE12=Veits Tanz
TTITLE13=Emotions
TTITLE14=Ball in Play
TTITLE15=Es Wetterleuchtet
TTITLE16=Colouring the Leaves
EXTD=YEAR: 1993
EXTT0=
EXTT1=
EXTT2=
EXTT3=
EXTT4=
EXTT5=
EXTT6=
EXTT7=
EXTT8=
EXTT9=
EXTT10=
EXTT11=
EXTT12=
EXTT13=
EXTT14=
EXTT15=
EXTT16=
PLAYORDER=
